<?xml version="1.0" encoding="iso-8859-1"?>
<!-- Generator: Adobe Illustrator 25.4.1, SVG Export Plug-In . SVG Version: 6.00 Build 0)  -->
<svg version="1.1" xmlns="http://www.w3.org/2000/svg" xmlns:xlink="http://www.w3.org/1999/xlink" x="0px" y="0px"
	 viewBox="0 0 1920 1080" style="enable-background:new 0 0 1920 1080;" xml:space="preserve">
<g id="Draft2_x5F_sky.png_xA0_Image_00000139278939279270675750000015821629252795072190_">
	<image style="overflow:visible;" width="1920" height="672" id="Draft2_x5F_sky.png_xA0_Image" xlink:href="2A59FC88.png" >
	</image>
</g>
<g id="Draft2_x5F_trees.png_xA0_Image_00000082333751483934892720000015418592606384919474_">
	<image style="overflow:visible;" width="1920" height="744" id="Draft2_x5F_trees.png_xA0_Image" xlink:href="2A59FC89.png" >
	</image>
</g>
<g id="Draft2_x5F_ground.png_xA0_Image_00000037686298466828334930000004730599521782003087_">
	
		<image style="overflow:visible;" width="1920" height="120" id="Draft2_x5F_ground.png_xA0_Image" xlink:href="2A59FC8F.png"  transform="matrix(1 0 0 1 0 960)">
	</image>
</g>
<g id="Draft2_x5F_brick.png_xA0_Image_00000021805616787864989840000016992036174791974069_">
	
		<image style="overflow:visible;" width="1920" height="192" id="Draft2_x5F_brick.png_xA0_Image" xlink:href="2A59FC8A.png"  transform="matrix(1 0 0 1 0 768)">
	</image>
</g>
<g id="Draft2_x5F_building.png_xA0_Image_00000126288840598231656080000007058288501833174172_">
	
		<image style="overflow:visible;" width="1920" height="608" id="Draft2_x5F_building.png_xA0_Image" xlink:href="2A59FC8B.png"  transform="matrix(1 0 0 1 0 352)">
	</image>
</g>
<g id="Draft2_x5F_door.png_xA0_Image_00000043434250387470558470000006445328960377568434_">
	
		<image style="overflow:visible;" width="120" height="336" id="Draft2_x5F_door.png_xA0_Image" xlink:href="2A59FC86.png"  transform="matrix(1 0 0 1 128 608)">
	</image>
</g>
<g id="Dark_Windows_Filled_00000096770402412082570150000007223899169142971571_">
	<g id="Drum_xA0_Image_00000083804458263417068460000003350474409578952322_">
		
			<image style="overflow:visible;" width="120" height="232" id="Drum_xA0_Image_00000068648485720273189730000015406134504425179549_" xlink:href="2A59FC87.png"  transform="matrix(1 0 0 1 416 536)">
		</image>
	</g>
	<g id="Ghost_xA0_Image_00000003100695839534649440000010909160412804981419_">
		
			<image style="overflow:visible;" width="120" height="232" id="Ghost_xA0_Image_00000146457952139888474610000001167364800865119882_" xlink:href="2A59FC98.png"  transform="matrix(1 0 0 1 608 536)">
		</image>
	</g>
	<g id="Cat_xA0_Image_00000153701950581423993500000008719263125052396687_">
		
			<image style="overflow:visible;" width="120" height="232" id="Cat_xA0_Image_00000099653393061144203940000005303805253161114039_" xlink:href="2A59FC9B.png"  transform="matrix(1 0 0 1 800 536)">
		</image>
	</g>
	<g id="Dragon_xA0_Image_00000144307260103256084010000009727280116564663739_">
		
			<image style="overflow:visible;" width="120" height="232" id="Dragon_xA0_Image_00000119800061545750896040000013883392364571839905_" xlink:href="1F017FF7.png"  transform="matrix(1 0 0 1 992 536)">
		</image>
	</g>
	<g id="Rabbit_xA0_Image_00000170970869332477872880000001792062393592395956_">
		
			<image style="overflow:visible;" width="120" height="232" id="Rabbit_xA0_Image_00000041979296794229435680000016640964622640819857_" xlink:href="1F017FF5.png"  transform="matrix(1 0 0 1 1184 536)">
		</image>
	</g>
	<g id="Unicorn_xA0_Image_00000098924664113317697520000003762496593644228780_">
		
			<image style="overflow:visible;" width="120" height="232" id="Unicorn_xA0_Image_00000041995268275912993400000008680068611985950902_" xlink:href="1F017FF3.png"  transform="matrix(1 0 0 1 1384 536)">
		</image>
	</g>
</g>
<g id="Image_xA0_21_00000094594656198353574470000014577105336715355537_" style="display:none;">
	<g id="Drum_xA0_Image_00000044146409366577733540000011323377521076617877_" style="display:inline;">
		
			<image style="overflow:visible;" width="120" height="232" id="Drum_xA0_Image" xlink:href="1F01800D.png"  transform="matrix(1 0 0 1 416 536)">
		</image>
	</g>
	<g id="Ghost_xA0_Image_00000011719563922814787440000015185654204707580842_" style="display:inline;">
		
			<image style="overflow:visible;" width="120" height="232" id="Ghost_xA0_Image" xlink:href="1F01800F.png"  transform="matrix(1 0 0 1 608 536)">
		</image>
	</g>
	<g id="Cat_xA0_Image_00000126300171848849182420000011903352716670244764_" style="display:inline;">
		
			<image style="overflow:visible;" width="120" height="232" id="Cat_xA0_Image" xlink:href="1F018012.png"  transform="matrix(1 0 0 1 800 536)">
		</image>
	</g>
	<g id="Dragon_xA0_Image_00000182522497074409933690000003625662264443055789_" style="display:inline;">
		
			<image style="overflow:visible;" width="120" height="232" id="Dragon_xA0_Image" xlink:href="1F018013.png"  transform="matrix(1 0 0 1 992 536)">
		</image>
	</g>
	<g id="Rabbit_xA0_Image_00000134962748897481875380000001579791516566712750_" style="display:inline;">
		
			<image style="overflow:visible;" width="120" height="232" id="Rabbit_xA0_Image" xlink:href="1F018015.png"  transform="matrix(1 0 0 1 1184 536)">
		</image>
	</g>
	<g id="Unicorn_xA0_Image_00000172436527032489295190000015458338308973064892_" style="display:inline;">
		
			<image style="overflow:visible;" width="120" height="232" id="Unicorn_xA0_Image" xlink:href="1F018017.png"  transform="matrix(1 0 0 1 1384 536)">
		</image>
	</g>
</g>
<g id="Draft2_x5F_atmmachine.png_xA0_Image_00000034089078309681903120000011618137973827332002_">
	
		<image style="overflow:visible;" width="72" height="280" id="Draft2_x5F_atmmachine.png_xA0_Image" xlink:href="1F018010.png"  transform="matrix(1 0 0 1 1672 648)">
	</image>
</g>
<g id="Image_xA0_23_xA0_Image_00000070827456194501046810000005884039833503468447_" style="display:none;">
	
		<image style="display:inline;overflow:visible;" width="72" height="280" id="Image_xA0_23_xA0_Image" xlink:href="1F018036.png"  transform="matrix(1 0 0 1 1672 648)">
	</image>
</g>
<g id="Draft2_x5F_tokensalessign.png_xA0_Image_00000061459710441358146100000004500924635281203126_">
	
		<image style="overflow:visible;" width="736" height="128" id="Draft2_x5F_tokensalessign.png_xA0_Image" xlink:href="1F018035.png"  transform="matrix(1 0 0 1 592 336)">
	</image>
</g>
<g id="Draft2_x5F_tokensales.png_xA0_Image_00000100346028161190428790000007731887251429541767_">
	
		<image style="overflow:visible;" width="672" height="48" id="Draft2_x5F_tokensales.png_xA0_Image" xlink:href="1F018032.png"  transform="matrix(1 0 0 1 624 376)">
	</image>
</g>
<g id="Draft2_x5F_atmsign.png_xA0_Image_00000026122079778930493490000009236877067665402286_">
	
		<image style="overflow:visible;" width="168" height="80" id="Draft2_x5F_atmsign.png_xA0_Image" xlink:href="1F01803D.png"  transform="matrix(1 0 0 1 1648 464)">
	</image>
</g>
<g id="Draft2_x5F_ido.png_xA0_Image_00000122000125810559907390000007955253011749780914_">
	
		<image style="overflow:visible;" width="104" height="32" id="Draft2_x5F_ido.png_xA0_Image" xlink:href="1F01803E.png"  transform="matrix(1 0 0 1 1680 488)">
	</image>
</g>
</svg>
