<?xml version="1.0" encoding="iso-8859-1"?>
<!-- Generator: Adobe Illustrator 25.4.1, SVG Export Plug-In . SVG Version: 6.00 Build 0)  -->
<svg version="1.1" xmlns="http://www.w3.org/2000/svg" xmlns:xlink="http://www.w3.org/1999/xlink" x="0px" y="0px"
	 viewBox="0 0 1920 1080" style="enable-background:new 0 0 1920 1080;" xml:space="preserve">
<g id="Draft2_x5F_sky.png_xA0_Image_00000137833790813592810650000018421425107946483383_">
	<image style="overflow:visible;" width="1920" height="672" id="Draft2_x5F_sky.png_xA0_Image" xlink:href="704BA841.png" >
	</image>
</g>
<g id="Draft2_x5F_trees.png_xA0_Image_00000163794742642022027820000006537932521458705572_">
	<image style="overflow:visible;" width="1920" height="744" id="Draft2_x5F_trees.png_xA0_Image" xlink:href="704BA843.png" >
	</image>
</g>
<g id="Draft2_x5F_ground.png_xA0_Image_00000145755157428313326680000018292651792437797805_">
	
		<image style="overflow:visible;" width="1920" height="120" id="Draft2_x5F_ground.png_xA0_Image" xlink:href="704BA846.png"  transform="matrix(1 0 0 1 0 960)">
	</image>
</g>
<g id="Draft2_x5F_brick.png_xA0_Image_00000065794908465685655530000014756051652494358439_">
	
		<image style="overflow:visible;" width="1920" height="192" id="Draft2_x5F_brick.png_xA0_Image" xlink:href="704BA847.png"  transform="matrix(1 0 0 1 0 768)">
	</image>
</g>
<g id="Draft2_x5F_building.png_xA0_Image_00000087399555425753270940000000228381388530530990_">
	
		<image style="overflow:visible;" width="1920" height="608" id="Draft2_x5F_building.png_xA0_Image" xlink:href="704BA842.png"  transform="matrix(1 0 0 1 0 352)">
	</image>
</g>
<g id="Draft2_x5F_door.png_xA0_Image_00000112621967552617475820000010157447403735976834_">
	
		<image style="overflow:visible;" width="120" height="336" id="Draft2_x5F_door.png_xA0_Image" xlink:href="704BA84D.png"  transform="matrix(1 0 0 1 128 608)">
	</image>
</g>

<g id="Dark_Windows_Filled_00000150796507032743252810000001033553210937146544_">
	<g id="Empty1_xA0_Image_00000000217904280151431270000011818480974773735577_">
		
			<image style="overflow:visible;" width="120" height="232" id="Empty1_xA0_Image_00000046297740748774138000000010037674238420307585_" xlink:href="704BA84F.png"  transform="matrix(1 0 0 1 416 536)">
		</image>
	</g>
	<g id="Ghost_xA0_Image_00000001660076861622946970000016298409088432731309_">
		
			<image style="overflow:visible;" width="120" height="232" id="Ghost_xA0_Image_00000003815261364765523990000011449198659179196080_" xlink:href="704BA844.png"  transform="matrix(1 0 0 1 608 536)">
		</image>
	</g>
	<g id="Cat_xA0_Image_00000063626386379678182150000013953988672589300608_">
		
			<image style="overflow:visible;" width="120" height="232" id="Cat_xA0_Image_00000063630230899273266290000017253647207013207943_" xlink:href="3AEF517A.png"  transform="matrix(1 0 0 1 800 536)">
		</image>
	</g>
	<g id="Dragon_xA0_Image_00000129202712640624541270000010141879858780898445_">
		
			<image style="overflow:visible;" width="120" height="232" id="Dragon_xA0_Image_00000181790754914333738730000004617896413726551219_" xlink:href="3AEF517D.png"  transform="matrix(1 0 0 1 992 536)">
		</image>
	</g>
	<g id="Rabbit_xA0_Image_00000092424319357002081870000002221723439070428597_">
		
			<image style="overflow:visible;" width="120" height="232" id="Rabbit_xA0_Image_00000165936399963026079830000013229504880580192162_" xlink:href="3AEF517E.png"  transform="matrix(1 0 0 1 1184 536)">
		</image>
	</g>
	<g id="Empty6_xA0_Image_00000143612556398144330260000011007770679647551126_">
		
			<image style="overflow:visible;" width="120" height="232" id="Empty6_xA0_Image_00000177474110717747717440000016399833930857822122_" xlink:href="3AEF517C.png"  transform="matrix(1 0 0 1 1384 536)">
		</image>
	</g>
</g>
<g id="Image_xA0_22_00000037681194846112212900000010687131407961500832_" style="display:none;">
	<g id="Empty1_xA0_Image_00000037669596638665921600000011694118628177612432_" style="display:inline;">
		
			<image style="overflow:visible;" width="120" height="232" id="Empty1_xA0_Image" xlink:href="3AEF517B.png"  transform="matrix(1 0 0 1 416 536)">
		</image>
	</g>
	<g id="Ghost_xA0_Image_00000111149681128773765470000005744628144649015717_" style="display:inline;">
		
			<image style="overflow:visible;" width="120" height="232" id="Ghost_xA0_Image" xlink:href="3AEF5165.png"  transform="matrix(1 0 0 1 608 536)">
		</image>
	</g>
	<g id="Cat_xA0_Image_00000009549499656068272970000001633830208550184365_" style="display:inline;">
		
			<image style="overflow:visible;" width="120" height="232" id="Cat_xA0_Image" xlink:href="3AEF5166.png"  transform="matrix(1 0 0 1 800 536)">
		</image>
	</g>
	<g id="Dragon_xA0_Image_00000052064748896058682470000004568509404372873618_" style="display:inline;">
		
			<image style="overflow:visible;" width="120" height="232" id="Dragon_xA0_Image" xlink:href="3AEF5164.png"  transform="matrix(1 0 0 1 992 536)">
		</image>
	</g>
	<g id="Rabbit_xA0_Image_00000114037416380821841320000016827045645734787747_" style="display:inline;">
		
			<image style="overflow:visible;" width="120" height="232" id="Rabbit_xA0_Image" xlink:href="3AEF516A.png"  transform="matrix(1 0 0 1 1184 536)">
		</image>
	</g>
	<g id="Empty6_xA0_Image_00000049186215579152474390000010564297764366563000_" style="display:inline;">
		
			<image style="overflow:visible;" width="120" height="232" id="Empty6_xA0_Image" xlink:href="3AEF516D.png"  transform="matrix(1 0 0 1 1384 536)">
		</image>
	</g>
</g>
<g id="Draft2_x5F_atmmachine.png_xA0_Image_00000106831653273160104420000016810935767759304843_">
	
		<image style="overflow:visible;" width="72" height="280" id="Draft2_x5F_atmmachine.png_xA0_Image" xlink:href="3AEF5181.png"  transform="matrix(1 0 0 1 1672 648)">
	</image>
</g>
<g id="Image_xA0_24_xA0_Image_00000020374746129785004910000008360020120272866217_" style="display:none;">
	
		<image style="display:inline;overflow:visible;" width="72" height="280" id="Image_xA0_24_xA0_Image" xlink:href="3AEF5183.png"  transform="matrix(1 0 0 1 1672 648)">
	</image>
</g>
<g id="Draft2_x5F_tokensalessign.png_xA0_Image_00000053530989491328702070000004862801463090548370_">
	
		<image style="overflow:visible;" width="736" height="128" id="Draft2_x5F_tokensalessign.png_xA0_Image" xlink:href="3AEF5180.png"  transform="matrix(1 0 0 1 592 336)">
	</image>
</g>
<g id="Draft2_x5F_tokensales.png_xA0_Image_00000142144622131843390270000011336895343006553271_">
	
		<image style="overflow:visible;" width="672" height="48" id="Draft2_x5F_tokensales.png_xA0_Image" xlink:href="3AEF518F.png"  transform="matrix(1 0 0 1 624 376)">
	</image>
</g>
<g id="Draft2_x5F_atmsign.png_xA0_Image_00000083077399884010133510000010939292618082306971_">
	
		<image style="overflow:visible;" width="168" height="80" id="Draft2_x5F_atmsign.png_xA0_Image" xlink:href="3AEF5182.png"  transform="matrix(1 0 0 1 1648 464)">
	</image>
</g>
<g id="Draft2_x5F_ido.png_xA0_Image_00000170959570252778408360000006261412270628104615_">
	
		<image style="overflow:visible;" width="104" height="32" id="Draft2_x5F_ido.png_xA0_Image" xlink:href="3AEF5186.png"  transform="matrix(1 0 0 1 1680 488)">
	</image>
</g>
</svg>
