<?xml version="1.0" encoding="iso-8859-1"?>
<!-- Generator: Adobe Illustrator 25.4.1, SVG Export Plug-In . SVG Version: 6.00 Build 0)  -->
<svg version="1.1" xmlns="http://www.w3.org/2000/svg" xmlns:xlink="http://www.w3.org/1999/xlink" x="0px" y="0px"
	 viewBox="0 0 1920 1080" style="enable-background:new 0 0 1920 1080;" xml:space="preserve">
<g id="Draft2_x5F_sky.png_xA0_Image_00000022539932515493585250000009013510489582355844_">
	<image style="overflow:visible;" width="1920" height="672" id="Draft2_x5F_sky.png_xA0_Image" xlink:href="4220AB64.png" >
	</image>
</g>
<g id="Draft2_x5F_trees.png_xA0_Image_00000165952422622303951620000010635267871677591436_">
	<image style="overflow:visible;" width="1920" height="744" id="Draft2_x5F_trees.png_xA0_Image" xlink:href="4220AB65.png" >
	</image>
</g>
<g id="Draft2_x5F_ground.png_xA0_Image_00000146457850331258842580000004789753971576943038_">
	
		<image style="overflow:visible;" width="1920" height="120" id="Draft2_x5F_ground.png_xA0_Image" xlink:href="4220AB63.png"  transform="matrix(1 0 0 1 0 960)">
	</image>
</g>
<g id="Draft2_x5F_brick.png_xA0_Image_00000045620992493793305240000016651244706731745921_">
	
		<image style="overflow:visible;" width="1920" height="192" id="Draft2_x5F_brick.png_xA0_Image" xlink:href="4220AB6C.png"  transform="matrix(1 0 0 1 0 768)">
	</image>
</g>
<g id="Draft2_x5F_building.png_xA0_Image_00000003101216609485758850000005079872986678355848_">
	
		<image style="overflow:visible;" width="1920" height="608" id="Draft2_x5F_building.png_xA0_Image" xlink:href="4220AB6F.png"  transform="matrix(1 0 0 1 0 352)">
	</image>
</g>
<g id="Draft2_x5F_window4.png_copy_xA0_Image_00000129166326186221375680000012199030999952982187_">
	
		<image style="overflow:visible;" width="120" height="232" id="Draft2_x5F_window4.png_copy_xA0_Image" xlink:href="4220AB6D.png"  transform="matrix(1 0 0 1 1184 536)">
	</image>
</g>
<g id="darksushi">
	
		<image style="overflow:visible;" width="120" height="232" id="Draft2_x5F_windowholes2.png_copy_5_xA0_Image" xlink:href="4220AB62.png"  transform="matrix(1 0 0 1 992 536)">
	</image>
</g>
<g id="darkuni">
	
		<image style="overflow:visible;" width="120" height="232" id="Draft2_x5F_window6.png_copy_xA0_Image" xlink:href="4220AB66.png"  transform="matrix(1 0 0 1 800 536)">
	</image>
</g>
<g id="darkpancake">
	
		<image style="overflow:visible;" width="120" height="232" id="Draft2_x5F_windowholes2.png_copy_4_xA0_Image" xlink:href="4220AB67.png"  transform="matrix(1 0 0 1 608 536)">
	</image>
</g>
<g id="darkleft">
	
		<image style="overflow:visible;" width="120" height="232" id="Draft2_x5F_windowholes2.png_copy_xA0_Image" xlink:href="8EB8C5C3.png"  transform="matrix(1 0 0 1 416 536)">
	</image>
</g>
<g id="darkright">
	
		<image style="overflow:visible;" width="120" height="232" id="Draft2_x5F_windowholes2.png_copy_3_xA0_Image" xlink:href="8EB8C5C1.png"  transform="matrix(1 0 0 1 1384 536)">
	</image>
</g>
<g id="litpancake" style="display:none;">
	
		<image style="display:inline;overflow:visible;" width="120" height="232" id="Image_xA0_11_xA0_Image" xlink:href="8EB8C5C7.png"  transform="matrix(1 0 0 1 608 536)">
	</image>
</g>
<g id="litright" style="display:none;">
	
		<image style="display:inline;overflow:visible;" width="120" height="232" id="Image_xA0_12_xA0_Image" xlink:href="8EB8C5C2.png"  transform="matrix(1 0 0 1 1384 536)">
	</image>
</g>
<g id="litquick" style="display:none;">
	
		<image style="display:inline;overflow:visible;" width="120" height="232" id="Image_xA0_13_xA0_Image" xlink:href="8EB8C5DD.png"  transform="matrix(1 0 0 1 1184 536)">
	</image>
</g>
<g id="litpink" style="display:none;">
	
		<image style="display:inline;overflow:visible;" width="120" height="232" id="Image_xA0_14_xA0_Image" xlink:href="8EB8C5DE.png"  transform="matrix(1 0 0 1 800 536)">
	</image>
</g>
<g id="litsushi" style="display:none;">
	
		<image style="display:inline;overflow:visible;" width="120" height="232" id="Image_xA0_15_xA0_Image" xlink:href="8EB8C5DF.png"  transform="matrix(1 0 0 1 992 536)">
	</image>
</g>
<g id="litleft" style="display:none;">
	
		<image style="display:inline;overflow:visible;" width="120" height="232" id="Image_xA0_16_xA0_Image" xlink:href="8EB8C5C4.png"  transform="matrix(1 0 0 1 416 536)">
	</image>
</g>
<g id="Draft2_x5F_door.png_xA0_Image_00000157304466361431078840000016629867261222028215_">
	
		<image style="overflow:visible;" width="120" height="336" id="Draft2_x5F_door.png_xA0_Image" xlink:href="8EB8C5C5.png"  transform="matrix(1 0 0 1 128 608)">
	</image>
</g>
<g id="Draft2_x5F_atmmachine.png_xA0_Image_00000131328393349739476580000018046848438104900247_">
	
		<image style="overflow:visible;" width="72" height="280" id="Draft2_x5F_atmmachine.png_xA0_Image" xlink:href="8EB8C5C6.png"  transform="matrix(1 0 0 1 1672 648)">
	</image>
</g>
<g id="Draft2_x5F_tokensalessign.png_xA0_Image_00000005242337285253000940000017650978620703255699_">
	
		<image style="overflow:visible;" width="736" height="128" id="Draft2_x5F_tokensalessign.png_xA0_Image" xlink:href="8EB8C5FA.png"  transform="matrix(1 0 0 1 592 336)">
	</image>
</g>
<g id="Draft2_x5F_tokensales.png_xA0_Image_00000139263289053742304540000018041767535304504450_">
	
		<image style="overflow:visible;" width="672" height="48" id="Draft2_x5F_tokensales.png_xA0_Image" xlink:href="8EB8C5F9.png"  transform="matrix(1 0 0 1 624 376)">
	</image>
</g>
<g id="Draft2_x5F_atmsign.png_xA0_Image_00000079473285858267228240000003200063992783815585_">
	
		<image style="overflow:visible;" width="168" height="80" id="Draft2_x5F_atmsign.png_xA0_Image" xlink:href="8EB8C5E6.png"  transform="matrix(1 0 0 1 1648 464)">
	</image>
</g>
<g id="Draft2_x5F_ido.png_xA0_Image_00000005259573952772783220000000973434564019217843_">
	
		<image style="overflow:visible;" width="104" height="32" id="Draft2_x5F_ido.png_xA0_Image" xlink:href="8EB8C5E9.png"  transform="matrix(1 0 0 1 1680 488)">
	</image>
</g>
</svg>
