<?xml version="1.0" encoding="iso-8859-1"?>
<!-- Generator: Adobe Illustrator 25.4.1, SVG Export Plug-In . SVG Version: 6.00 Build 0)  -->
<svg version="1.1" xmlns="http://www.w3.org/2000/svg" xmlns:xlink="http://www.w3.org/1999/xlink" x="0px" y="0px"
	 viewBox="0 0 1920 1080" style="enable-background:new 0 0 1920 1080;" xml:space="preserve">
<g id="BG_xA0_Image_00000101818154083025201720000010136616913562042030_">
	<image style="overflow:visible;" width="1920" height="1080" id="BG_xA0_Image" xlink:href="1B852979.png" >
	</image>
</g>
<g id="CoasterView_xA0_Image_00000145032925046367957060000015883256969322589592_">
	
		<image style="overflow:visible;" width="320" height="184" id="CoasterView_xA0_Image" xlink:href="1B85297B.png"  transform="matrix(1 0 0 1 160 32)">
	</image>
</g>
<g id="SeasonPassSign_xA0_Image_00000137818950636560670460000006179863328761069736_">
	
		<image style="overflow:visible;" width="640" height="216" id="SeasonPassSign_xA0_Image" xlink:href="1B85297E.png"  transform="matrix(1 0 0 1 640 216)">
	</image>
</g>
<g id="Image_xA0_3_xA0_Image_00000081627518702001509050000003398725689675866286_" style="display:none;">
	
		<image style="display:inline;overflow:visible;" width="640" height="216" id="Image_xA0_3_xA0_Image" xlink:href="1B85297F.png"  transform="matrix(1 0 0 1 640 216)">
	</image>
</g>
<g id="LifetimePassSign_xA0_Image_00000011749783146931450480000015284714685797962906_">
	
		<image style="overflow:visible;" width="640" height="224" id="LifetimePassSign_xA0_Image" xlink:href="1B85297A.png"  transform="matrix(1 0 0 1 640 432)">
	</image>
</g>
<g id="Image_xA0_5_xA0_Image_00000028317758405606871780000018093429503746995618_" style="display:none;">
	
		<image style="display:inline;overflow:visible;" width="640" height="224" id="Image_xA0_5_xA0_Image" xlink:href="1B852975.png"  transform="matrix(1 0 0 1 640 432)">
	</image>
</g>
<g id="FastPassSign_xA0_Image_00000158008078153124840240000010415048896928281484_">
	
		<image style="overflow:visible;" width="640" height="216" id="FastPassSign_xA0_Image" xlink:href="1B852976.png"  transform="matrix(1 0 0 1 640 8)">
	</image>
</g>
<g id="Image_xA0_7_xA0_Image_00000008868086155507240450000015663207452108185230_" style="display:none;">
	
		<image style="display:inline;overflow:visible;" width="640" height="216" id="Image_xA0_7_xA0_Image" xlink:href="1B852977.png"  transform="matrix(1 0 0 1 640 8)">
	</image>
</g>
<g id="ExitSign_xA0_Image_00000134225637263011009470000012075625814499648145_">
	
		<image style="overflow:visible;" width="213" height="150" id="ExitSign_xA0_Image" xlink:href="1B852989.png"  transform="matrix(1 0 0 1 1531 0)">
	</image>
</g>
<g id="ExitSignDark_xA0_Image_00000025406240957957830110000013744922120470841778_">
	
		<image style="overflow:visible;" width="213" height="150" id="ExitSignDark_xA0_Image" xlink:href="FA3EFE82.png"  transform="matrix(1 0 0 1 1531 0)">
	</image>
</g>
<g id="Counter_xA0_Image_00000165915348771454748400000010420799444393528480_">
	
		<image style="overflow:visible;" width="1920" height="400" id="Counter_xA0_Image" xlink:href="FA3EFE85.png"  transform="matrix(1 0 0 1 0 680)">
	</image>
</g>
<g id="PCLeft_xA0_Image_00000143616979262179328970000012232228964385637513_">
	
		<image style="overflow:visible;" width="504" height="392" id="PCLeft_xA0_Image" xlink:href="FA3EFE86.png"  transform="matrix(1 0 0 1 64 352)">
	</image>
</g>
<g id="PCRight_xA0_Image_00000170244559281216924970000003652798638579827111_">
	
		<image style="overflow:visible;" width="488" height="392" id="PCRight_xA0_Image" xlink:href="FA3EFE84.png"  transform="matrix(1 0 0 1 1368 352)">
	</image>
</g>
</svg>
