<?xml version="1.0" encoding="iso-8859-1"?>
<!-- Generator: Adobe Illustrator 25.4.1, SVG Export Plug-In . SVG Version: 6.00 Build 0)  -->
<svg version="1.1" xmlns="http://www.w3.org/2000/svg" xmlns:xlink="http://www.w3.org/1999/xlink" x="0px" y="0px"
	 viewBox="0 0 1920 1080" style="enable-background:new 0 0 1920 1080;" xml:space="preserve">
<g id="Draft2_x5F_sky.png_xA0_Image_00000132053853378281216740000007866338048905163188_">
	<image style="overflow:visible;" width="1920" height="672" id="Draft2_x5F_sky.png_xA0_Image" xlink:href="2A59FC88.png" >
	</image>
</g>
<g id="Draft2_x5F_trees.png_xA0_Image_00000136400394152216819340000005021101463732875956_">
	<image style="overflow:visible;" width="1920" height="744" id="Draft2_x5F_trees.png_xA0_Image" xlink:href="2A59FC89.png" >
	</image>
</g>
<g id="Draft2_x5F_ground.png_xA0_Image_00000118389648511514360970000006270155996598750118_">
	
		<image style="overflow:visible;" width="1920" height="120" id="Draft2_x5F_ground.png_xA0_Image" xlink:href="2A59FC8F.png"  transform="matrix(1 0 0 1 0 960)">
	</image>
</g>
<g id="Draft2_x5F_brick.png_xA0_Image_00000008852398886413867230000009709390051199950470_">
	
		<image style="overflow:visible;" width="1920" height="192" id="Draft2_x5F_brick.png_xA0_Image" xlink:href="2A59FC8A.png"  transform="matrix(1 0 0 1 0 768)">
	</image>
</g>
<g id="Draft2_x5F_building.png_xA0_Image_00000040557047248361602710000000879010780852571574_">
	
		<image style="overflow:visible;" width="1920" height="608" id="Draft2_x5F_building.png_xA0_Image" xlink:href="2A59FC8B.png"  transform="matrix(1 0 0 1 0 352)">
	</image>
</g>
<g id="Draft2_x5F_door.png_xA0_Image_00000055664968057434299120000002497714219025421440_">
	
		<image style="overflow:visible;" width="120" height="336" id="Draft2_x5F_door.png_xA0_Image" xlink:href="2A59FC86.png"  transform="matrix(1 0 0 1 128 608)">
	</image>
</g>
<g id="Dark_Windows_Filled_00000049221593991682101700000010529255669947236269_">
	<g id="Drum_xA0_Image_00000145740301142168724720000006208115069898690184_">
		
			<image style="overflow:visible;" width="120" height="232" id="Drum_xA0_Image_00000053518472508395847890000007063874943184293761_" xlink:href="2A59FC87.png"  transform="matrix(1 0 0 1 796 536)">
		</image>
	</g>
	<g id="Ghost_xA0_Image_00000048492258097031345750000004107346303005185670_">
		
			<image style="overflow:visible;" width="120" height="232" id="Ghost_xA0_Image_00000101812820398191061290000013987020331153035393_" xlink:href="2A59FC98.png"  transform="matrix(1 0 0 1 1376 536)">
		</image>
	</g>
	<g id="Cat_xA0_Image_00000149340932887247337000000012398801471090062990_">
		
			<image style="overflow:visible;" width="120" height="232" id="Cat_xA0_Image_00000119811123627138497540000012800637506061082549_" xlink:href="2A59FC9B.png"  transform="matrix(1 0 0 1 416 536)">
		</image>
	</g>
	<g id="Dragon_xA0_Image_00000159435960057574128070000007648844389589565568_">
		
			<image style="overflow:visible;" width="120" height="232" id="Dragon_xA0_Image_00000154390512298500466780000002603275790736578722_" xlink:href="1F017FF7.png"  transform="matrix(1 0 0 1 992 536)">
		</image>
	</g>
	<g id="Rabbit_xA0_Image_00000101826233916058102230000016110019234161868461_">
		
			<image style="overflow:visible;" width="120" height="232" id="Rabbit_xA0_Image_00000028316074999737372400000010922810273693682317_" xlink:href="1F017FF5.png"  transform="matrix(1 0 0 1 1184 536)">
		</image>
	</g>
	<g id="Unicorn_xA0_Image_00000088846118812403102970000004449875846303390850_">
		
			<image style="overflow:visible;" width="120" height="232" id="Unicorn_xA0_Image_00000123417692230397433570000013039579720093789853_" xlink:href="1F017FF3.png"  transform="matrix(1 0 0 1 600 536)">
		</image>
	</g>
</g>
<g id="Image_xA0_21_00000147211987463812724120000010365460306515868602_" style="display:none;">
	<g id="Drum_xA0_Image_00000158005667702252225770000014181191221344693165_" style="display:inline;">
		
			<image style="overflow:visible;" width="120" height="232" id="Drum_xA0_Image" xlink:href="1F01800D.png"  transform="matrix(1 0 0 1 796 536)">
		</image>
	</g>
	<g id="Ghost_xA0_Image_00000041983545955289658000000004606566118077665183_" style="display:inline;">
		
			<image style="overflow:visible;" width="120" height="232" id="Ghost_xA0_Image" xlink:href="1F01800F.png"  transform="matrix(1 0 0 1 1376 536)">
		</image>
	</g>
	<g id="Cat_xA0_Image_00000013187727865404405490000000529007134203311754_" style="display:inline;">
		
			<image style="overflow:visible;" width="120" height="232" id="Cat_xA0_Image" xlink:href="1F018012.png"  transform="matrix(1 0 0 1 416 536)">
		</image>
	</g>
	<g id="Dragon_xA0_Image_00000057138386244524683100000009078239559077083782_" style="display:inline;">
		
			<image style="overflow:visible;" width="120" height="232" id="Dragon_xA0_Image" xlink:href="1F018013.png"  transform="matrix(1 0 0 1 992 536)">
		</image>
	</g>
	<g id="Rabbit_xA0_Image_00000078013086897577509670000015127550922734423434_" style="display:inline;">
		
			<image style="overflow:visible;" width="120" height="232" id="Rabbit_xA0_Image" xlink:href="1F018015.png"  transform="matrix(1 0 0 1 1184 536)">
		</image>
	</g>
	<g id="Unicorn_xA0_Image_00000132051117693027903050000011049808910352923544_" style="display:inline;">
		
			<image style="overflow:visible;" width="120" height="232" id="Unicorn_xA0_Image" xlink:href="1F018017.png"  transform="matrix(1 0 0 1 600 536)">
		</image>
	</g>
</g>
<g id="Draft2_x5F_atmmachine.png_xA0_Image_00000001650229213091621830000007561325965826235026_">
	
		<image style="overflow:visible;" width="72" height="280" id="Draft2_x5F_atmmachine.png_xA0_Image" xlink:href="1F018010.png"  transform="matrix(1 0 0 1 1672 648)">
	</image>
</g>
<g id="Image_xA0_23_xA0_Image_00000150066966028805128400000003148424841050513313_" style="display:none;">
	
		<image style="display:inline;overflow:visible;" width="72" height="280" id="Image_xA0_23_xA0_Image" xlink:href="1F018036.png"  transform="matrix(1 0 0 1 1672 648)">
	</image>
</g>
<g id="Draft2_x5F_tokensalessign.png_xA0_Image_00000096754297431699889490000012631133535683151280_">
	
		<image style="overflow:visible;" width="736" height="128" id="Draft2_x5F_tokensalessign.png_xA0_Image" xlink:href="1F018035.png"  transform="matrix(1 0 0 1 592 336)">
	</image>
</g>
<g id="Draft2_x5F_tokensales.png_xA0_Image_00000180331144305333437570000001813267587746435976_">
	
		<image style="overflow:visible;" width="672" height="48" id="Draft2_x5F_tokensales.png_xA0_Image" xlink:href="1F018032.png"  transform="matrix(1 0 0 1 624 376)">
	</image>
</g>
<g id="Draft2_x5F_atmsign.png_xA0_Image_00000085973512938934080640000006116976749850122149_">
	
		<image style="overflow:visible;" width="168" height="80" id="Draft2_x5F_atmsign.png_xA0_Image" xlink:href="1F01803D.png"  transform="matrix(1 0 0 1 1648 464)">
	</image>
</g>
<g id="Draft2_x5F_ido.png_xA0_Image_00000017479671396521872860000013768345618681845171_">
	
		<image style="overflow:visible;" width="104" height="32" id="Draft2_x5F_ido.png_xA0_Image" xlink:href="1F01803E.png"  transform="matrix(1 0 0 1 1680 488)">
	</image>
</g>
</svg>
