<?xml version="1.0" encoding="iso-8859-1"?>
<!-- Generator: Adobe Illustrator 25.4.1, SVG Export Plug-In . SVG Version: 6.00 Build 0)  -->
<svg version="1.1" xmlns="http://www.w3.org/2000/svg" xmlns:xlink="http://www.w3.org/1999/xlink" x="0px" y="0px"
	 viewBox="0 0 1920 1080" style="enable-background:new 0 0 1920 1080;" xml:space="preserve">
<g id="Draft2_x5F_sky.png_xA0_Image_00000083792407119532038860000005734892718928856471_">
	<image style="overflow:visible;" width="1920" height="672" id="Draft2_x5F_sky.png_xA0_Image" xlink:href="43545922.png" >
	</image>
</g>
<g id="Draft2_x5F_trees.png_xA0_Image_00000059301011220597923530000014017544877630796967_">
	<image style="overflow:visible;" width="1920" height="744" id="Draft2_x5F_trees.png_xA0_Image" xlink:href="43545926.png" >
	</image>
</g>
<g id="Draft2_x5F_ground.png_xA0_Image_00000176018438411009498140000010911206802858100104_">
	
		<image style="overflow:visible;" width="1920" height="120" id="Draft2_x5F_ground.png_xA0_Image" xlink:href="43545921.png"  transform="matrix(1 0 0 1 0 960)">
	</image>
</g>
<g id="Draft2_x5F_brick.png_xA0_Image_00000087371000301706902010000001655292548610006921_">
	
		<image style="overflow:visible;" width="1920" height="192" id="Draft2_x5F_brick.png_xA0_Image" xlink:href="43545923.png"  transform="matrix(1 0 0 1 0 768)">
	</image>
</g>
<g id="Draft2_x5F_building.png_xA0_Image_00000160159952698993930010000004056988901966352286_">
	
		<image style="overflow:visible;" width="1920" height="608" id="Draft2_x5F_building.png_xA0_Image" xlink:href="43545920.png"  transform="matrix(1 0 0 1 0 352)">
	</image>
</g>
<g id="Draft2_x5F_door.png_xA0_Image_00000027566847767159660330000011691350641004531901_">
	
		<image style="overflow:visible;" width="120" height="336" id="Draft2_x5F_door.png_xA0_Image" xlink:href="4354592E.png"  transform="matrix(1 0 0 1 128 608)">
	</image>
</g>
<g id="Draft2_x5F_window6.png_xA0_Image_00000057122443448340113310000011344427911566035876_">
	
		<image style="overflow:visible;" width="120" height="232" id="Draft2_x5F_window6.png_xA0_Image" xlink:href="43545925.png"  transform="matrix(1 0 0 1 1384 536)">
	</image>
</g>
<g id="Draft2_x5F_window5.png_xA0_Image_00000137836204796497733130000012381644854959940757_">
	
		<image style="overflow:visible;" width="120" height="232" id="Draft2_x5F_window5.png_xA0_Image" xlink:href="43545927.png"  transform="matrix(1 0 0 1 1184 536)">
	</image>
</g>
<g id="Draft2_x5F_window4.png_xA0_Image_00000114763474740643190610000000886439017146222749_">
	
		<image style="overflow:visible;" width="120" height="232" id="Draft2_x5F_window4.png_xA0_Image" xlink:href="43545924.png"  transform="matrix(1 0 0 1 992 536)">
	</image>
</g>
<g id="Draft2_x5F_window3.png_xA0_Image_00000183212073762166064430000005698203080927940543_">
	
		<image style="overflow:visible;" width="120" height="232" id="Draft2_x5F_window3.png_xA0_Image" xlink:href="BB30E235.png"  transform="matrix(1 0 0 1 800 536)">
	</image>
</g>
<g id="Draft2_x5F_window2.png_xA0_Image_00000093164218950175645360000016974455986172292757_">
	
		<image style="overflow:visible;" width="120" height="232" id="Draft2_x5F_window2.png_xA0_Image" xlink:href="BB30E24B.png"  transform="matrix(1 0 0 1 608 536)">
	</image>
</g>
<g id="Draft2_x5F_window1.png_xA0_Image_00000048497681958229912040000005811747178997328806_">
	
		<image style="overflow:visible;" width="120" height="232" id="Draft2_x5F_window1.png_xA0_Image" xlink:href="BB30E24D.png"  transform="matrix(1 0 0 1 416 536)">
	</image>
</g>
<g id="Image_xA0_12_xA0_Image_00000019680199544323949910000009042465085547324553_" style="display:none;">
	
		<image style="display:inline;overflow:visible;" width="120" height="232" id="Image_xA0_12_xA0_Image" xlink:href="BB30E24F.png"  transform="matrix(1 0 0 1 1384 536)">
	</image>
</g>
<g id="Image_xA0_13_xA0_Image_00000157305245573146551940000006312307139007954617_" style="display:none;">
	
		<image style="display:inline;overflow:visible;" width="120" height="232" id="Image_xA0_13_xA0_Image" xlink:href="BB30E24C.png"  transform="matrix(1 0 0 1 1184 536)">
	</image>
</g>
<g id="Image_xA0_14_xA0_Image_00000093139350903031045200000016996708401071177613_" style="display:none;">
	
		<image style="display:inline;overflow:visible;" width="120" height="232" id="Image_xA0_14_xA0_Image" xlink:href="BB30E254.png"  transform="matrix(1 0 0 1 992 536)">
	</image>
</g>
<g id="Image_xA0_15_xA0_Image_00000124126497114491206820000018373373817885401494_" style="display:none;">
	
		<image style="display:inline;overflow:visible;" width="120" height="232" id="Image_xA0_15_xA0_Image" xlink:href="BB30E255.png"  transform="matrix(1 0 0 1 800 536)">
	</image>
</g>
<g id="Image_xA0_16_xA0_Image_00000181073481805707613620000007647363596224086200_" style="display:none;">
	
		<image style="display:inline;overflow:visible;" width="120" height="232" id="Image_xA0_16_xA0_Image" xlink:href="BB30E257.png"  transform="matrix(1 0 0 1 608 536)">
	</image>
</g>
<g id="Image_xA0_17_xA0_Image_00000019644658279677113470000010633099768067511439_" style="display:none;">
	
		<image style="display:inline;overflow:visible;" width="120" height="232" id="Image_xA0_17_xA0_Image" xlink:href="BB30E253.png"  transform="matrix(1 0 0 1 416 536)">
	</image>
</g>
<g id="Draft2_x5F_atmmachine.png_xA0_Image_00000156547220518424221150000005598074996853925526_">
	
		<image style="overflow:visible;" width="72" height="280" id="Draft2_x5F_atmmachine.png_xA0_Image" xlink:href="BB30E25B.png"  transform="matrix(1 0 0 1 1672 648)">
	</image>
</g>
<g id="Draft2_x5F_tokensalessign.png_xA0_Image_00000150797836696530017220000016545789655633259919_">
	
		<image style="overflow:visible;" width="736" height="128" id="Draft2_x5F_tokensalessign.png_xA0_Image" xlink:href="BB30E270.png"  transform="matrix(1 0 0 1 592 336)">
	</image>
</g>
<g id="Draft2_x5F_tokensales.png_xA0_Image_00000113346359951206689520000000859885049203370916_">
	
		<image style="overflow:visible;" width="672" height="48" id="Draft2_x5F_tokensales.png_xA0_Image" xlink:href="BB30E273.png"  transform="matrix(1 0 0 1 624 376)">
	</image>
</g>
<g id="Draft2_x5F_atmsign.png_xA0_Image_00000011000015410131283520000002203907401529362877_">
	
		<image style="overflow:visible;" width="168" height="80" id="Draft2_x5F_atmsign.png_xA0_Image" xlink:href="BB30E271.png"  transform="matrix(1 0 0 1 1648 464)">
	</image>
</g>
<g id="Draft2_x5F_ido.png_xA0_Image_00000030472770981506465750000007823565642899555988_">
	
		<image style="overflow:visible;" width="104" height="32" id="Draft2_x5F_ido.png_xA0_Image" xlink:href="BB30E27F.png"  transform="matrix(1 0 0 1 1680 488)">
	</image>
</g>
</svg>
