<?xml version="1.0" encoding="iso-8859-1"?>
<!-- Generator: Adobe Illustrator 25.4.1, SVG Export Plug-In . SVG Version: 6.00 Build 0)  -->
<svg version="1.1" xmlns="http://www.w3.org/2000/svg" xmlns:xlink="http://www.w3.org/1999/xlink" x="0px" y="0px"
	 viewBox="0 0 1920 1080" style="enable-background:new 0 0 1920 1080;" xml:space="preserve">
<g id="Draft2_x5F_sky.png_xA0_Image_00000003081328179737531110000010542658700685166243_">
	<image style="overflow:visible;" width="1920" height="672" id="Draft2_x5F_sky.png_xA0_Image" xlink:href="704BA841.png" >
	</image>
</g>
<g id="Draft2_x5F_trees.png_xA0_Image_00000070087067074735957130000001391526414051903137_">
	<image style="overflow:visible;" width="1920" height="744" id="Draft2_x5F_trees.png_xA0_Image" xlink:href="704BA843.png" >
	</image>
</g>
<g id="Draft2_x5F_ground.png_xA0_Image_00000124884045381775068040000012907842438618786440_">
	
		<image style="overflow:visible;" width="1920" height="120" id="Draft2_x5F_ground.png_xA0_Image" xlink:href="704BA846.png"  transform="matrix(1 0 0 1 0 960)">
	</image>
</g>
<g id="Draft2_x5F_brick.png_xA0_Image_00000180355053634056664790000018357161637119741879_">
	
		<image style="overflow:visible;" width="1920" height="192" id="Draft2_x5F_brick.png_xA0_Image" xlink:href="704BA847.png"  transform="matrix(1 0 0 1 0 768)">
	</image>
</g>
<g id="Draft2_x5F_building.png_xA0_Image_00000052814960116877318830000002011442587396811905_">
	
		<image style="overflow:visible;" width="1920" height="608" id="Draft2_x5F_building.png_xA0_Image" xlink:href="704BA842.png"  transform="matrix(1 0 0 1 0 352)">
	</image>
</g>
<g id="Draft2_x5F_door.png_xA0_Image_00000098925803936519996830000007947336287146840212_">
	
		<image style="overflow:visible;" width="120" height="336" id="Draft2_x5F_door.png_xA0_Image" xlink:href="704BA84D.png"  transform="matrix(1 0 0 1 128 608)">
	</image>
</g>
<g id="Dark_Windows_Filled_00000054946396214656185520000013282568532110346409_">
	<g id="Empty1_xA0_Image_00000181078557209498516140000016584016581728920209_">
		
			<image style="overflow:visible;" width="120" height="232" id="Empty1_xA0_Image_00000155863715301050110020000007008915569738073020_" xlink:href="704BA84E.png"  transform="matrix(1 0 0 1 416 536)">
		</image>
	</g>
	<g id="Ghost_xA0_Image_00000063605782063592058710000011140630121433557393_">
		
			<image style="overflow:visible;" width="120" height="232" id="Ghost_xA0_Image_00000018955347990739677890000010904620584889061782_" xlink:href="704BA84F.png"  transform="matrix(1 0 0 1 608 536)">
		</image>
	</g>
	<g id="Cat_xA0_Image_00000149344050069352017180000015666739399285117065_">
		
			<image style="overflow:visible;" width="120" height="232" id="Cat_xA0_Image_00000170957051002511445640000018018413115579905179_" xlink:href="704BA844.png"  transform="matrix(1 0 0 1 800 536)">
		</image>
	</g>
	<g id="Dragon_xA0_Image_00000080927480466242036290000005020385536877528979_">
		
			<image style="overflow:visible;" width="120" height="232" id="Dragon_xA0_Image_00000057853883834924579790000007336293975891213190_" xlink:href="3AEF517A.png"  transform="matrix(1 0 0 1 992 536)">
		</image>
	</g>
	<g id="Rabbit_xA0_Image_00000132803232202878496980000004219630824498632094_">
		
			<image style="overflow:visible;" width="120" height="232" id="Rabbit_xA0_Image_00000083800062283491146970000004466879668703552905_" xlink:href="3AEF517D.png"  transform="matrix(1 0 0 1 1184 536)">
		</image>
	</g>
	<g id="Empty6_xA0_Image_00000073718062542404217960000001344281640589788288_">
		
			<image style="overflow:visible;" width="120" height="232" id="Empty6_xA0_Image_00000085938617376927112640000012959299872077343618_" xlink:href="3AEF517E.png"  transform="matrix(1 0 0 1 1384 536)">
		</image>
	</g>
</g>
<g id="Image_xA0_21_00000036211137715551983460000004477902100951910054_" style="display:none;">
	<g id="Empty1_xA0_Image_00000168078097667284800370000008513916938097910915_" style="display:inline;">
		
			<image style="overflow:visible;" width="120" height="232" id="Empty1_xA0_Image" xlink:href="3AEF517C.png"  transform="matrix(1 0 0 1 416 536)">
		</image>
	</g>
	<g id="Ghost_xA0_Image_00000044880524216749258380000003883497101523791029_" style="display:inline;">
		
			<image style="overflow:visible;" width="120" height="232" id="Ghost_xA0_Image" xlink:href="3AEF517B.png"  transform="matrix(1 0 0 1 608 536)">
		</image>
	</g>
	<g id="Cat_xA0_Image_00000138573210671694577650000014168129774250523067_" style="display:inline;">
		
			<image style="overflow:visible;" width="120" height="232" id="Cat_xA0_Image" xlink:href="3AEF5165.png"  transform="matrix(1 0 0 1 800 536)">
		</image>
	</g>
	<g id="Dragon_xA0_Image_00000147182270290668516390000016486044055417167292_" style="display:inline;">
		
			<image style="overflow:visible;" width="120" height="232" id="Dragon_xA0_Image" xlink:href="3AEF5166.png"  transform="matrix(1 0 0 1 992 536)">
		</image>
	</g>
	<g id="Rabbit_xA0_Image_00000044168501986450463540000010010262706098476479_" style="display:inline;">
		
			<image style="overflow:visible;" width="120" height="232" id="Rabbit_xA0_Image" xlink:href="3AEF5164.png"  transform="matrix(1 0 0 1 1184 536)">
		</image>
	</g>
	<g id="Empty6_xA0_Image_00000029754680935733182410000002068705936254784439_" style="display:inline;">
		
			<image style="overflow:visible;" width="120" height="232" id="Empty6_xA0_Image" xlink:href="3AEF516A.png"  transform="matrix(1 0 0 1 1384 536)">
		</image>
	</g>
</g>
<g id="Draft2_x5F_atmmachine.png_xA0_Image_00000081623829231295591630000015698989873584929201_">
	
		<image style="overflow:visible;" width="72" height="280" id="Draft2_x5F_atmmachine.png_xA0_Image" xlink:href="3AEF516D.png"  transform="matrix(1 0 0 1 1672 648)">
	</image>
</g>
<g id="Image_xA0_23_xA0_Image_00000090255773280698171280000017808222616888219576_" style="display:none;">
	
		<image style="display:inline;overflow:visible;" width="72" height="280" id="Image_xA0_23_xA0_Image" xlink:href="3AEF5181.png"  transform="matrix(1 0 0 1 1672 648)">
	</image>
</g>
<g id="Draft2_x5F_tokensalessign.png_xA0_Image_00000119796484200101983910000017724199998926421147_">
	
		<image style="overflow:visible;" width="736" height="128" id="Draft2_x5F_tokensalessign.png_xA0_Image" xlink:href="3AEF5183.png"  transform="matrix(1 0 0 1 592 336)">
	</image>
</g>
<g id="Draft2_x5F_tokensales.png_xA0_Image_00000118362025348284080960000001935201132786738058_">
	
		<image style="overflow:visible;" width="672" height="48" id="Draft2_x5F_tokensales.png_xA0_Image" xlink:href="3AEF5180.png"  transform="matrix(1 0 0 1 624 376)">
	</image>
</g>
<g id="Draft2_x5F_atmsign.png_xA0_Image_00000094591654405817015420000011947721686536614285_">
	
		<image style="overflow:visible;" width="168" height="80" id="Draft2_x5F_atmsign.png_xA0_Image" xlink:href="3AEF518F.png"  transform="matrix(1 0 0 1 1648 464)">
	</image>
</g>
<g id="Draft2_x5F_ido.png_xA0_Image_00000042732489658093826640000007263584685948171906_">
	
		<image style="overflow:visible;" width="104" height="32" id="Draft2_x5F_ido.png_xA0_Image" xlink:href="3AEF5182.png"  transform="matrix(1 0 0 1 1680 488)">
	</image>
</g>
</svg>
