<?xml version="1.0" encoding="iso-8859-1"?>
<!-- Generator: Adobe Illustrator 25.4.1, SVG Export Plug-In . SVG Version: 6.00 Build 0)  -->
<svg version="1.1" xmlns="http://www.w3.org/2000/svg" xmlns:xlink="http://www.w3.org/1999/xlink" x="0px" y="0px"
	 viewBox="0 0 1920 1080" style="enable-background:new 0 0 1920 1080;" xml:space="preserve">
<g id="Draft1_x5F_sky.png_xA0_Image_00000154411321980122159080000017363608349605686919_">
	<image style="overflow:visible;" width="1920" height="1080" id="Draft1_x5F_sky.png_xA0_Image" xlink:href="89CC75CE.png" >
	</image>
</g>
<g id="Draft1_x5F_clouds.png_xA0_Image_00000020357915668108645260000015238088959705632395_">
	
		<image style="overflow:visible;" width="1416" height="528" id="Draft1_x5F_clouds.png_xA0_Image" xlink:href="89CC75D2.png"  transform="matrix(1 0 0 1 0 104)">
	</image>
</g>
<g id="Draft1_x5F_bg_park.png_xA0_Image_00000155853261029802226620000006204532128591458696_">
	
		<image style="overflow:visible;" width="656" height="496" id="Draft1_x5F_bg_park.png_xA0_Image" xlink:href="89CC75D5.png"  transform="matrix(1 0 0 1 0 584)">
	</image>
</g>
<g id="Draft1_x5F_trees.png_xA0_Image_00000090996853770501000680000016377369729311076489_">
	
		<image style="overflow:visible;" width="1920" height="424" id="Draft1_x5F_trees.png_xA0_Image" xlink:href="89CC75D6.png"  transform="matrix(1 0 0 1 0 656)">
	</image>
</g>
<g id="Draft1_x5F_mgrollercoaster.png_xA0_Image_00000121270462233559935750000007253894372652468102_">
	
		<image style="overflow:visible;" width="1248" height="472" id="Draft1_x5F_mgrollercoaster.png_xA0_Image" xlink:href="89CC75D4.png"  transform="matrix(1 0 0 1 672 608)">
	</image>
</g>
<g id="Draft1_x5F_coaster.png_xA0_Image_00000129913381426357766120000014436799618905444543_">
	
		<image style="overflow:visible;" width="344" height="232" id="Draft1_x5F_coaster.png_xA0_Image" xlink:href="89CC75D3.png"  transform="matrix(1 0 0 1 312 841)">
	</image>
</g>
<g id="Draft1_x5F_fgrollercoaster.png_xA0_Image_00000162337432371119862660000010554605554651843203_">
	
		<image style="overflow:visible;" width="1648" height="815" id="Draft1_x5F_fgrollercoaster.png_xA0_Image" xlink:href="89CC75DD.png"  transform="matrix(1 0 0 1 272 265)">
	</image>
</g>
<g id="Draft1_x5F_supports.png_xA0_Image_00000174570998521712026800000003140574746030165935_">
	
		<image style="overflow:visible;" width="1648" height="823" id="Draft1_x5F_supports.png_xA0_Image" xlink:href="89CC75DE.png"  transform="matrix(1 0 0 1 272 257)">
	</image>
</g>
<g id="Image_xA0_8_xA0_Image_00000072279906305519784770000005288010192034374804_" style="display:none;">
	
		<image style="display:inline;overflow:visible;" width="336" height="328" id="Image_xA0_8_xA0_Image" xlink:href="89CC75DC.png"  transform="matrix(1 0 0 1 880 752)">
	</image>
</g>
<g id="Image_xA0_9_xA0_Image_00000136395105258788386870000010822807207397936548_" style="display:none;">
	
		<image style="display:inline;overflow:visible;" width="926" height="188" id="Image_xA0_9_xA0_Image" xlink:href="EA8D0711.png"  transform="matrix(1 0 0 1 497 0)">
	</image>
</g>
<g id="Draft1_x5F_roadmap.png_xA0_Image_00000090285197665423391510000006762066081316235137_">
	
		<image style="overflow:visible;" width="650" height="128" id="Draft1_x5F_roadmap.png_xA0_Image" xlink:href="EA8D0717.png"  transform="matrix(1 0 0 1 635 3)">
	</image>
</g>
<g id="Flag_xA0_Image_00000173123955872774057980000016292280348550022051_">
	
		<image style="overflow:visible;" width="112" height="152" id="Flag_xA0_Image" xlink:href="EA8D0710.png"  transform="matrix(1 0 0 1 1808 113)">
	</image>
</g>
<g id="Q3_xA0_Image_00000018225772649332688180000015705060608020121780_">
	
		<image style="overflow:visible;" width="112" height="655" id="Q3_xA0_Image" xlink:href="EA8D0713.png"  transform="matrix(1 0 0 1 800 425)">
	</image>
</g>
<g id="Image_xA0_13_xA0_Image_00000021825344125658299170000013222156547227012030_" style="display:none;">
	
		<image style="display:inline;overflow:visible;" width="112" height="655" id="Image_xA0_13_xA0_Image" xlink:href="EA8D070F.png"  transform="matrix(1 0 0 1 800 425)">
	</image>
</g>
<g id="Q4_xA0_Image_00000039831872287227047420000008740929867374840501_">
	
		<image style="overflow:visible;" width="112" height="815" id="Q4_xA0_Image" xlink:href="EA8D072F.png"  transform="matrix(1 0 0 1 1056 265)">
	</image>
</g>
<g id="Image_xA0_15_xA0_Image_00000036211608269104640870000014875190968419952035_" style="display:none;">
	
		<image style="display:inline;overflow:visible;" width="112" height="815" id="Image_xA0_15_xA0_Image" xlink:href="EA8D0731.png"  transform="matrix(1 0 0 1 1056 265)">
	</image>
</g>
<g id="Q1_xA0_Image_00000109022693039141951910000013421876263809216428_">
	
		<image style="overflow:visible;" width="112" height="983" id="Q1_xA0_Image" xlink:href="EA8D0733.png"  transform="matrix(1 0 0 1 1312 97)">
	</image>
</g>
<g id="Image_xA0_17_xA0_Image_00000135680021461841616550000005770307905343159209_" style="display:none;">
	
		<image style="display:inline;overflow:visible;" width="112" height="983" id="Image_xA0_17_xA0_Image" xlink:href="EA8D0730.png"  transform="matrix(1 0 0 1 1312 97)">
	</image>
</g>
<g id="Q2_xA0_Image_00000153687412393750426280000010106094367904490147_">
	
		<image style="overflow:visible;" width="112" height="967" id="Q2_xA0_Image" xlink:href="EA8D0737.png"  transform="matrix(1 0 0 1 1680 113)">
	</image>
</g>
<g id="Image_xA0_19_xA0_Image_00000104696921956590822380000013156077464379458438_" style="display:none;">
	
		<image style="display:inline;overflow:visible;" width="112" height="967" id="Image_xA0_19_xA0_Image" xlink:href="EA8D0754.png"  transform="matrix(1 0 0 1 1680 113)">
	</image>
</g>
<g id="Image_xA0_20_xA0_Image_00000155842246961916537070000011362812323603404949_" style="display:none;">
	
		<image style="display:inline;overflow:visible;" width="505" height="1080" id="Image_xA0_20_xA0_Image" xlink:href="EA8D0757.png"  transform="matrix(1 0 0 1 708 0)">
	</image>
</g>
<g id="Image_xA0_21_xA0_Image_00000075859314422523866690000017957937341888170429_" style="display:none;">
	
		<image style="display:inline;overflow:visible;" width="505" height="1080" id="Image_xA0_21_xA0_Image" xlink:href="EA8D0755.png"  transform="matrix(1 0 0 1 708 0)">
	</image>
</g>
<g id="Image_xA0_22_xA0_Image_00000144315609328010812960000013058385499192849580_" style="display:none;">
	
		<image style="display:inline;overflow:visible;" width="505" height="1080" id="Image_xA0_22_xA0_Image" xlink:href="EA8D075B.png"  transform="matrix(1 0 0 1 708 0)">
	</image>
</g>
<g id="Image_xA0_23_xA0_Image_00000039129060279483943220000003086952502513225893_" style="display:none;">
	
		<image style="display:inline;overflow:visible;" width="505" height="1080" id="Image_xA0_23_xA0_Image" xlink:href="EA8D075C.png"  transform="matrix(1 0 0 1 708 0)">
	</image>
</g>
</svg>
