<?xml version="1.0" encoding="iso-8859-1"?>
<!-- Generator: Adobe Illustrator 26.0.1, SVG Export Plug-In . SVG Version: 6.00 Build 0)  -->
<svg version="1.1" xmlns="http://www.w3.org/2000/svg" xmlns:xlink="http://www.w3.org/1999/xlink" x="0px" y="0px"
	 viewBox="0 0 1920 1080" style="enable-background:new 0 0 1920 1080;" xml:space="preserve">
<g id="exit_xA0_Image_00000052062932847420017750000001691243963627359935_">
	
		<image style="overflow:visible;" width="664" height="364" id="exit_xA0_Image" xlink:href="703CD45E15803EF2.png"  transform="matrix(1 0 0 1 628 358)">
	</image>
</g>
<g id="transrec_xA0_Image_00000123422849197866144420000005611070715392583090_">
	
		<image style="overflow:visible;" width="533" height="69" id="transrec_xA0_Image" xlink:href="703CD45E15803EF6.png"  transform="matrix(1 0 0 1 690 577)">
	</image>
</g>
<g id="Image_xA0_2_xA0_Image_00000125576522917803223340000009168055706643812766_" style="display:none;">
	
		<image style="display:inline;overflow:visible;" width="533" height="69" id="Image_xA0_2_xA0_Image" xlink:href="703CD45E15803EF1.png"  transform="matrix(1 0 0 1 690 577)">
	</image>
</g>
<g id="Image_xA0_3_xA0_Image_00000132775401471543844450000003994488060510647445_" style="display:none;">
	
		<image style="display:inline;overflow:visible;" width="56" height="56" id="Image_xA0_3_xA0_Image" xlink:href="703CD45E15803EF3.png"  transform="matrix(1 0 0 1 1212 374)">
	</image>
</g>
<g id="Image_xA0_4_xA0_Image_00000043415695167594039320000006885386299531297454_" style="display:none;">
	
		<image style="display:inline;overflow:visible;" width="56" height="56" id="Image_xA0_4_xA0_Image" xlink:href="703CD45E15803EF0.png"  transform="matrix(1 0 0 1 1212 374)">
	</image>
</g>
<g id="Image_xA0_5_xA0_Image_00000147941601505221180430000015695548209309726090_" style="display:none;">
	
		<image style="display:inline;overflow:visible;" width="59" height="54" id="Image_xA0_5_xA0_Image" xlink:href="703CD45E15803EFE.png"  transform="matrix(1 0 0 1 786 585)">
	</image>
</g>
<g id="Image_xA0_6_xA0_Image_00000078761578332309818970000005428931194643659153_" style="display:none;">
	
		<image style="display:inline;overflow:visible;" width="52" height="50" id="Image_xA0_6_xA0_Image" xlink:href="703CD45E15803EF5.png"  transform="matrix(1 0 0 1 791 585)">
	</image>
</g>
<g id="Image_xA0_7_xA0_Image_00000011742217733069366980000001783008581771966132_" style="display:none;">
	
		<image style="display:inline;overflow:visible;" width="52" height="53" id="Image_xA0_7_xA0_Image" xlink:href="703CD45E15803EF7.png"  transform="matrix(1 0 0 1 790 585)">
	</image>
</g>
<g id="polygonscan_xA0_Image_00000084490822412179475940000001575725429800126082_">
	
		<image style="overflow:visible;" width="48" height="49" id="polygonscan_xA0_Image" xlink:href="703CD45E15803EF4.png"  transform="matrix(1 0 0 1 791 588)">
	</image>
</g>
</svg>
