<?xml version="1.0" encoding="iso-8859-1"?>
<!-- Generator: Adobe Illustrator 25.4.1, SVG Export Plug-In . SVG Version: 6.00 Build 0)  -->
<svg version="1.1" xmlns="http://www.w3.org/2000/svg" xmlns:xlink="http://www.w3.org/1999/xlink" x="0px" y="0px"
	 viewBox="0 0 1920 1080" style="enable-background:new 0 0 1920 1080;" xml:space="preserve">
<g id="BG_xA0_Image_00000137829990089394553110000007314069723321252746_">
	<image style="overflow:visible;" width="1920" height="1080" id="BG_xA0_Image" xlink:href="7C815B9C.png" >
	</image>
</g>
<g id="Door_xA0_Image_00000181084636824783575860000004066209989113755279_">
	
		<image style="overflow:visible;" width="552" height="1056" id="Door_xA0_Image" xlink:href="7C815B9D.png"  transform="matrix(1 0 0 1 1344 24)">
	</image>
</g>
<g id="CoasterView_xA0_Image_00000062158175278474497730000012194960170254972084_">
	
		<image style="overflow:visible;" width="320" height="184" id="CoasterView_xA0_Image" xlink:href="7C815B9B.png"  transform="matrix(1 0 0 1 160 32)">
	</image>
</g>
<g id="FastPassSign_xA0_Image_00000160908843705413795910000005206093417512148106_">
	
		<image style="overflow:visible;" width="640" height="216" id="FastPassSign_xA0_Image" xlink:href="7C815BA4.png"  transform="matrix(1 0 0 1 640 8)">
	</image>
</g>
<g id="SeasonPass_xA0_Image_00000129183003093298882120000001173652051700663943_">
	
		<image style="overflow:visible;" width="640" height="224" id="SeasonPass_xA0_Image" xlink:href="7C815BA7.png"  transform="matrix(1 0 0 1 640 216)">
	</image>
</g>
<g id="LifeTimePass_xA0_Image_00000047054237081932240280000007197119402745747861_">
	
		<image style="overflow:visible;" width="640" height="224" id="LifeTimePass_xA0_Image" xlink:href="7C815BA5.png"  transform="matrix(1 0 0 1 640 432)">
	</image>
</g>
<g id="Counter_xA0_Image_00000076588140991888163620000015376476667769666723_">
	
		<image style="overflow:visible;" width="1920" height="400" id="Counter_xA0_Image" xlink:href="7C815BAB.png"  transform="matrix(1 0 0 1 0 680)">
	</image>
</g>
<g id="PCLeft_xA0_Image_00000179605374476902175950000000256016740924792764_">
	
		<image style="overflow:visible;" width="504" height="392" id="PCLeft_xA0_Image" xlink:href="7C815BAC.png"  transform="matrix(1 0 0 1 64 352)">
	</image>
</g>
<g id="PCRight_xA0_Image_00000111166498086619358770000011489250893694322052_">
	
		<image style="overflow:visible;" width="488" height="392" id="PCRight_xA0_Image" xlink:href="7C815BAF.png"  transform="matrix(1 0 0 1 1368 352)">
	</image>
</g>
</svg>
