<?xml version="1.0" encoding="iso-8859-1"?>
<!-- Generator: Adobe Illustrator 25.4.1, SVG Export Plug-In . SVG Version: 6.00 Build 0)  -->
<svg version="1.1" xmlns="http://www.w3.org/2000/svg" xmlns:xlink="http://www.w3.org/1999/xlink" x="0px" y="0px"
	 viewBox="0 0 1920 1080" style="enable-background:new 0 0 1920 1080;" xml:space="preserve">
<g id="BGsign_xA0_Image_00000028319178471747681140000011597942749712797589_">
	
		<image style="overflow:visible;" width="1532" height="1080" id="BGsign_xA0_Image" xlink:href="3C6E466F.png"  transform="matrix(1 0 0 1 194 0)">
	</image>
</g>
<g id="Telegram_xA0_Image_00000116927017120242763220000008728947158711071165_">
	
	<a href = "" onclick = "window.open('https://t.co/ako4ZqDhjZ?amp=1')" class= "btn">
		<image class = 'hoverable' style="overflow:visible;" width="1420" height="230" id="Telegram_xA0_Image" xlink:href="3C6E466D.png"  transform="matrix(1 0 0 1 250 793)">
	</image>
	<image class = 'hoverable' style="display:inline;overflow:visible;" width="1420" height="230" id="Image_xA0_2_xA0_Image" xlink:href="3C6E4673.png"  transform="matrix(1 0 0 1 250 793)">
	</image>
	<image class = 'hoverable' style="overflow:visible;" width="1420" height="230" id="Telegram_xA0_Image" xlink:href="3C6E466D.png"  transform="matrix(1 0 0 1 250 793)">
	</image>
	</a>
</g>
<g id="Image_xA0_2_xA0_Image_00000116924465109097700030000008842161812847115962_" style="display:none;">
	
		<image style="display:inline;overflow:visible;" width="1420" height="230" id="Image_xA0_2_xA0_Image" xlink:href="3C6E4673.png"  transform="matrix(1 0 0 1 250 793)">
	</image>
</g>
<g id="Twitch_xA0_Image_00000111182578860200913620000000381156435502186420_">
	
		<image style="overflow:visible;" width="1420" height="230" id="Twitch_xA0_Image" xlink:href="3C6E4675.png"  transform="matrix(1 0 0 1 250 548)">
	</image>
</g>
<g id="Image_xA0_4_xA0_Image_00000174598725206730579930000000264943659099430801_" style="display:none;">
	
		<image style="display:inline;overflow:visible;" width="1420" height="230" id="Image_xA0_4_xA0_Image" xlink:href="3C6E4677.png"  transform="matrix(1 0 0 1 250 548)">
	</image>
</g>
<g id="Discord_xA0_Image_00000062873642470636661250000004226837982816869035_">
	
		<image style="overflow:visible;" width="1420" height="230" id="Discord_xA0_Image" xlink:href="3C6E4674.png"  transform="matrix(1 0 0 1 250 303)">
	</image>
</g>
<g id="Image_xA0_6_xA0_Image_00000080915820106591859030000010552434616313089710_" style="display:none;">
	
		<image style="display:inline;overflow:visible;" width="1420" height="230" id="Image_xA0_6_xA0_Image" xlink:href="3C6E467C.png"  transform="matrix(1 0 0 1 250 303)">
	</image>
</g>
<g id="Twitter_xA0_Image_00000142163041978246652970000012067432211798265776_">
	<a href = "" onclick = "window.open('https://twitter.com/AstroWorldDefi')" class="btn">
	<image class = 'hoverable' style="overflow:visible;" width="1420" height="230" id="Twitter_xA0_Image" xlink:href="3C6E467D.png"  transform="matrix(1 0 0 1 250 58)">
	</image>
	<image class = 'hoverable' style="display:inline;overflow:visible;" width="1420" height="230" id="Image_xA0_8_xA0_Image" xlink:href="3C6E467F.png"  transform="matrix(1 0 0 1 250 58)">
	</image>
	<image class = 'hoverable' style="overflow:visible;" width="1420" height="230" id="Twitter_xA0_Image" xlink:href="3C6E467D.png"  transform="matrix(1 0 0 1 250 58)">
	</image>
	</a>
</g>
<g id="Image_xA0_8_xA0_Image_00000138575072354540821040000007943824088376856731_" style="display:none;">
	
		<image style="display:inline;overflow:visible;" width="1420" height="230" id="Image_xA0_8_xA0_Image" xlink:href="3C6E467F.png"  transform="matrix(1 0 0 1 250 58)">
	</image>
</g>

<style>
.hoverable
{
    
    stroke: none; /* Replace with none if you like */
    stroke-width: 0;
    cursor: pointer;
}

.hoverable:hover
{
  
  
  opacity: -1;  
}

</style>
</svg>
