<?xml version="1.0" encoding="iso-8859-1"?>
<!-- Generator: Adobe Illustrator 25.4.1, SVG Export Plug-In . SVG Version: 6.00 Build 0)  -->
<svg version="1.1" xmlns="http://www.w3.org/2000/svg" xmlns:xlink="http://www.w3.org/1999/xlink" x="0px" y="0px"
	 viewBox="0 0 1920 1080" style="enable-background:new 0 0 1920 1080;" xml:space="preserve">
<g id="BGsign_xA0_Image_00000142140255383301508100000008638391951071529895_">
	
		<image style="overflow:visible;" width="1532" height="1080" id="BGsign_xA0_Image" xlink:href="4FA53F29.png"  transform="matrix(1 0 0 1 194 0)">
	</image>
</g>
<g id="Telegram_xA0_Image_00000029015806845913295880000015572526667661905842_">
	
			<a href = "" onclick = "window.open('https://t.co/ako4ZqDhjZ?amp=1')" class= "btn">

		<image class = 'hoverable' style="overflow:visible;" width="1420" height="230" id="Telegram_xA0_Image" xlink:href="4FA53F2B.png"  transform="matrix(1 0 0 1 250 793)">
	</image>
	<image class = 'hoverable' style="display:inline;overflow:visible;" width="1420" height="230" id="Image_xA0_2_xA0_Image" xlink:href="4FA53F2E.png"  transform="matrix(1 0 0 1 250 793)">
	</image>
	<image class = 'hoverable' style="overflow:visible;" width="1420" height="230" id="Telegram_xA0_Image" xlink:href="4FA53F2B.png"  transform="matrix(1 0 0 1 250 793)">
	</image>
	</a>
</g>
<g id="Image_xA0_2_xA0_Image_00000116940394296673230650000004781336712196231070_" style="display:none;">
	
		<image class = 'hoverable' style="display:inline;overflow:visible;" width="1420" height="230" id="Image_xA0_2_xA0_Image" xlink:href="4FA53F2E.png"  transform="matrix(1 0 0 1 250 793)">
	</image>
</g>
<g id="Twitch_xA0_Image_00000145780610922436961500000015296006526070196116_">
	
		<image class = 'hoverable' style="overflow:visible;" width="1420" height="230" id="Twitch_xA0_Image" xlink:href="4FA53F2F.png"  transform="matrix(1 0 0 1 250 548)">
	</image>
	<image class = 'hoverable' style="display:inline;overflow:visible;" width="1420" height="230" id="Image_xA0_4_xA0_Image" xlink:href="4FA53F2A.png"  transform="matrix(1 0 0 1 250 548)">
	</image>
	<image class = 'hoverable' style="overflow:visible;" width="1420" height="230" id="Twitch_xA0_Image" xlink:href="4FA53F2F.png"  transform="matrix(1 0 0 1 250 548)">
	</image>
</g>
<g id="Image_xA0_4_xA0_Image_00000149360571763651399780000011682884212947561620_" style="display:none;">
	
		<image class = 'hoverable' style="display:inline;overflow:visible;" width="1420" height="230" id="Image_xA0_4_xA0_Image" xlink:href="4FA53F2A.png"  transform="matrix(1 0 0 1 250 548)">
	</image>
</g>
<g id="Discord_xA0_Image_00000141453303012856557780000005410578672441639060_">
	
				<a href = "" onclick = "window.open('https://discord.gg/astroworld')" class= "btn">

		<image class = 'hoverable' style="overflow:visible;" width="1420" height="230" id="Discord_xA0_Image" xlink:href="4FA53F25.png"  transform="matrix(1 0 0 1 250 303)">
	</image>
	<image class = 'hoverable' style="display:inline;overflow:visible;" width="1420" height="230" id="Image_xA0_6_xA0_Image" xlink:href="4FA53F26.png"  transform="matrix(1 0 0 1 250 303)">
	</image>
	<image class = 'hoverable' style="overflow:visible;" width="1420" height="230" id="Discord_xA0_Image" xlink:href="4FA53F25.png"  transform="matrix(1 0 0 1 250 303)">
	</image>

	</a>
</g>
<g id="Image_xA0_6_xA0_Image_00000170995310943649553050000005411596829986671784_" style="display:none;">
	
		<image class = 'hoverable' style="display:inline;overflow:visible;" width="1420" height="230" id="Image_xA0_6_xA0_Image" xlink:href="4FA53F26.png"  transform="matrix(1 0 0 1 250 303)">
	</image>
</g>
<g id="Twitter_xA0_Image_00000057861916835916701500000008979440319091838100_">
	
			<a href = "" onclick = "window.open('https://twitter.com/AstroWorldDefi')" class="btn">

		<image class = 'hoverable' style="overflow:visible;" width="1420" height="230" id="Twitter_xA0_Image" xlink:href="4FA53F27.png"  transform="matrix(1 0 0 1 250 58)">
	</image>
	<image class = 'hoverable' style="display:inline;overflow:visible;" width="1420" height="230" id="Image_xA0_8_xA0_Image" xlink:href="4FA53F39.png"  transform="matrix(1 0 0 1 250 58)">
	</image>
	<image class = 'hoverable' style="overflow:visible;" width="1420" height="230" id="Twitter_xA0_Image" xlink:href="4FA53F27.png"  transform="matrix(1 0 0 1 250 58)">
	</image>
	</a>
</g>
<g id="Image_xA0_8_xA0_Image_00000035503539803340131760000012401390094411958177_" style="display:none;">
	
		<image style="display:inline;overflow:visible;" width="1420" height="230" id="Image_xA0_8_xA0_Image" xlink:href="4FA53F39.png"  transform="matrix(1 0 0 1 250 58)">
	</image>
</g>

<style>
.hoverable
{
    
    stroke: none; /* Replace with none if you like */
    stroke-width: 0;
    cursor: pointer;
}

.hoverable:hover
{
  
  
  opacity: -1;  
}

</style>
</svg>


