<?xml version="1.0" encoding="iso-8859-1"?>
<!-- Generator: Adobe Illustrator 25.4.1, SVG Export Plug-In . SVG Version: 6.00 Build 0)  -->
<svg version="1.1" xmlns="http://www.w3.org/2000/svg" xmlns:xlink="http://www.w3.org/1999/xlink" x="0px" y="0px"
	 viewBox="0 0 1920 1080" style="enable-background:new 0 0 1920 1080;" xml:space="preserve">
<g id="Layer_1_xA0_Image_00000089545537026868842830000013033407344618839698_">
	<image style="overflow:visible;" width="1920" height="1080" id="Layer_1_xA0_Image" xlink:href="644AB82A.png" >
	</image>
</g>
<g id="Image_xA0_7_00000124860168471151459050000015309452229040141963_" style="display:none;">
	<g id="Enter_light_xA0_Image_00000062150043650908189260000014823798196401629056_" style="display:inline;">
		
			<image style="overflow:visible;" width="160" height="184" id="Enter_light_xA0_Image" xlink:href="644AB82E.png"  transform="matrix(1 0 0 1 872 640)">
		</image>
	</g>
	<g id="Info_Light_xA0_Image_00000043443436964845879010000002600254651641788068_" style="display:inline;">
		
			<image style="overflow:visible;" width="208" height="184" id="Info_Light_xA0_Image" xlink:href="644AB829.png"  transform="matrix(1 0 0 1 160 640)">
		</image>
	</g>
	<g id="buy_light_xA0_Image_00000106124608962544751850000016040543081847302808_" style="display:inline;">
		
			<image style="overflow:visible;" width="208" height="184" id="buy_light_xA0_Image" xlink:href="644AB82B.png"  transform="matrix(1 0 0 1 1176 640)">
		</image>
	</g>
	<g id="About_Light_xA0_Image_00000118380505763567798410000009379000156145435577_" style="display:inline;">
		
			<image style="overflow:visible;" width="232" height="184" id="About_Light_xA0_Image" xlink:href="644AB828.png"  transform="matrix(1 0 0 1 1472 640)">
		</image>
	</g>
	<g id="NFT_light_xA0_Image_00000016052481104542104350000016871439632434822570_" style="display:inline;">
		
			<image style="overflow:visible;" width="160" height="184" id="NFT_light_xA0_Image" xlink:href="644AB836.png"  transform="matrix(1 0 0 1 544 640)">
		</image>
	</g>
</g>
<g id="lights_off_00000096746966057825278920000016440696776641428642_">
	<g id="Buy_xA0_Image_00000026164275635955106850000013383335973685757593_">
		
			<image style="overflow:visible;" width="208" height="184" id="Buy_xA0_Image" xlink:href="644AB839.png"  transform="matrix(1 0 0 1 1176 640)">
		</image>
	</g>
	<g id="Info_xA0_Image_00000084499701458199607730000005726769624466776456_">
		
			<image style="overflow:visible;" width="208" height="184" id="Info_xA0_Image" xlink:href="644AB83A.png"  transform="matrix(1 0 0 1 160 640)">
		</image>
	</g>
	<g id="About_xA0_Image_00000024719737353391898790000011136626796507585409_">
		
			<image style="overflow:visible;" width="232" height="184" id="About_xA0_Image" xlink:href="644AB838.png"  transform="matrix(1 0 0 1 1472 640)">
		</image>
	</g>
	<g id="NFT_xA0_Image_00000116200177056664793000000006945479736622843566_">
		
			<image style="overflow:visible;" width="160" height="184" id="NFT_xA0_Image" xlink:href="7ECC9E6D.png"  transform="matrix(1 0 0 1 544 640)">
		</image>
	</g>
	<g id="Enter_xA0_Image_00000050665216919601607980000007288304163506164377_">
		
			<image style="overflow:visible;" width="160" height="184" id="Enter_xA0_Image" xlink:href="7ECC9E63.png"  transform="matrix(1 0 0 1 872 640)">
		</image>
	</g>
</g>
<g id="Bin.png_xA0_Image_00000050631235179555802090000018018064343041597570_">
	
		<image style="overflow:visible;" width="64" height="104" id="Bin.png_xA0_Image" xlink:href="7ECC9E65.png"  transform="matrix(1 0 0 1 1152 736)">
	</image>
</g>
</svg>
