<?xml version="1.0" encoding="iso-8859-1"?>
<!-- Generator: Adobe Illustrator 26.0.1, SVG Export Plug-In . SVG Version: 6.00 Build 0)  -->
<svg version="1.1" xmlns="http://www.w3.org/2000/svg" xmlns:xlink="http://www.w3.org/1999/xlink" x="0px" y="0px"
	 viewBox="0 0 1920 1080" style="enable-background:new 0 0 1920 1080;" xml:space="preserve">
<g id="SocialMediaIcons_00000087379812368524477870000009283663676232910509_">
	<g id="Image_xA0_1_xA0_Image_00000057827035792321321960000015648234835145158063_" style="display:none;">
		
			<image style="display:inline;overflow:visible;" width="144" height="120" id="Image_xA0_1_xA0_Image" xlink:href="1299883C4A8D7813.png"  transform="matrix(1 0 0 1 60 56)">
		</image>
	</g>
	<g id="Image_xA0_2_xA0_Image_00000178201824904069940640000007266619362723924372_" style="display:none;">
		
			<image style="display:inline;overflow:visible;" width="120" height="144" id="Image_xA0_2_xA0_Image" xlink:href="1299883C4A8D7811.png"  transform="matrix(1 0 0 1 69 196)">
		</image>
	</g>
	<g id="Image_xA0_3_xA0_Image_00000126320118902847058280000007460797803967655059_" style="display:none;">
		
			<image style="display:inline;overflow:visible;" width="144" height="128" id="Image_xA0_3_xA0_Image" xlink:href="1299883C4A8D7817.png"  transform="matrix(1 0 0 1 57 340)">
		</image>
	</g>
	<g id="Image_xA0_4_xA0_Image_00000181770849672412609310000006637006581648061090_" style="display:none;">
		
			<image style="display:inline;overflow:visible;" width="144" height="144" id="Image_xA0_4_xA0_Image" xlink:href="1299883C4A8D7810.png"  transform="matrix(1 0 0 1 54 488)">
		</image>
	</g>
	<g id="Image_xA0_5_xA0_Image_00000051384381103724683700000006164437634944568749_" style="display:none;">
		
			<image style="display:inline;overflow:visible;" width="144" height="112" id="Image_xA0_5_xA0_Image" xlink:href="1299883C4A8D781E.png"  transform="matrix(1 0 0 1 60 652)">
		</image>
	</g>
	<g id="Binance_xA0_Image_00000178890103773367089390000017038661289367698847_">
		
			<image class = 'hoverable 'style="overflow:visible;" width="184" height="184" id="Binance_xA0_Image" xlink:href="1299883C4A8D781F.png"  transform="matrix(1 0 0 1 48 744)">
		</image>
		<image class = 'hoverable' style="display:inline;overflow:visible;" width="184" height="184" id="Image_xA0_7_xA0_Image" xlink:href="1299883C4A8D7812.png"  transform="matrix(1 0 0 1 48 744)">
		</image>
		<image class = 'hoverable' style="overflow:visible;" width="184" height="184" id="Binance_xA0_Image" xlink:href="1299883C4A8D781F.png"  transform="matrix(1 0 0 1 48 744)">
		</image>
	</g>

	<g id="Polygon_xA0_Image_00000007429699141946843820000018035081628528377245_">
		
			<image class = 'hoverable' style="overflow:visible;" width="192" height="168" id="Polygon_xA0_Image" xlink:href="1299883C4A8D7815.png"  transform="matrix(1 0 0 1 48 568)">
		</image>
		<image class = 'hoverable' style="display:inline;overflow:visible;" width="192" height="168" id="Image_xA0_9_xA0_Image" xlink:href="1299883C4A8D7816.png"  transform="matrix(1 0 0 1 48 568)">
		</image>
		<image class = 'hoverable' style="overflow:visible;" width="192" height="168" id="Polygon_xA0_Image" xlink:href="1299883C4A8D7815.png"  transform="matrix(1 0 0 1 48 568)">
		</image>
	</g>

	<g id="Ethereum_xA0_Image_00000023266467674063056440000001729689393378211001_">
		
			<image class = 'hoverable' style="overflow:visible;" width="88" height="176" id="Ethereum_xA0_Image" xlink:href="B030B0B6C6725AC0.png"  transform="matrix(1 0 0 1 96 384)">
		</image>
		<image class = 'hoverable' style="display:inline;overflow:visible;" width="88" height="176" id="Image_xA0_11_xA0_Image" xlink:href="B030B0B6C6725AC7.png"  transform="matrix(1 0 0 1 96 384)">
		</image>
		<image class = 'hoverable' style="overflow:visible;" width="88" height="176" id="Ethereum_xA0_Image" xlink:href="B030B0B6C6725AC0.png"  transform="matrix(1 0 0 1 96 384)">
		</image>
	</g>
	
	<g id="Fantom_xA0_Image_00000013158336371797257920000017110735701385947064_">
		
			<image class = 'hoverable' style="overflow:visible;" width="168" height="183" id="Fantom_xA0_Image_00000181796107118242977480000001453230155101395643_" xlink:href="B030B0B6C6725AC1.png"  transform="matrix(1 0 0 1 56 185)">
		</image>
		<image class = 'hoverable' style="display:inline;overflow:visible;" width="168" height="183" id="Image_xA0_13_xA0_Image" xlink:href="B030B0B6C6725AC3.png"  transform="matrix(1 0 0 1 56 185)">
		</image>
		<image class = 'hoverable' style="overflow:visible;" width="168" height="183" id="Fantom_xA0_Image_00000181796107118242977480000001453230155101395643_" xlink:href="B030B0B6C6725AC1.png"  transform="matrix(1 0 0 1 56 185)">
		</image>
	</g>
	
	<g id="Back_xA0_Image_00000065791631430179331730000007072429725853915056_">
		
			<image class = 'hoverable' style="overflow:visible;" width="152" height="129" id="Back_xA0_Image" xlink:href="B030B0B6C6725ADE.png"  transform="matrix(1 0 0 1 64 56)">
		</image>
		<image class = 'hoverable' style="display:inline;overflow:visible;" width="152" height="129" id="Image_xA0_15_xA0_Image" xlink:href="B030B0B6C6725ADF.png"  transform="matrix(1 0 0 1 64 56)">
		</image>
		<image class = 'hoverable' style="overflow:visible;" width="152" height="129" id="Back_xA0_Image" xlink:href="B030B0B6C6725ADE.png"  transform="matrix(1 0 0 1 64 56)">
		</image>
	</g>
	
</g>
<g id="NFT_Minter_00000156567466067900966620000004673128066934434181_">
	<g id="LifetimePassCard_xA0_Image_00000046300950485496447910000002433286916855826846_">
		
			<image style="overflow:visible;" width="486" height="279" id="LifetimePassCard_xA0_Image" xlink:href="B030B0B6C6725AC2.png"  transform="matrix(1 0 0 1 269 306)">
		</image>
	</g>
	<g id="Image_xA0_25_00000129191154339906522400000012478148883563496073_" style="display:none;">
		<g id="Choose_Network_xA0_Image_00000113332039864895859400000012412037757757473691_" style="display:inline;">
			
				<image style="overflow:visible;" width="267" height="51" id="Choose_Network_xA0_Image" xlink:href="B030B0B6C6725AC5.png"  transform="matrix(1 0 0 1 379 740)">
			</image>
		</g>
		<g id="Image_xA0_21_xA0_Image_00000008131151198102044890000015037260626869989800_">
			
				<image style="display:inline;overflow:visible;" width="267" height="51" id="Image_xA0_21_xA0_Image" xlink:href="B030B0B6C6725AC6.png"  transform="matrix(1 0 0 1 379 740)">
			</image>
		</g>
		<g id="Image_xA0_22_xA0_Image_00000057142163210116550730000005903784249408140419_">
			
				<image style="display:inline;overflow:visible;" width="267" height="51" id="Image_xA0_22_xA0_Image" xlink:href="B030B0B6C6725AC4.png"  transform="matrix(1 0 0 1 379 740)">
			</image>
		</g>
		<g id="Image_xA0_23_xA0_Image_00000155114578724276479090000001928509027317486759_">
			
				<image style="display:inline;overflow:visible;" width="267" height="51" id="Image_xA0_23_xA0_Image" xlink:href="B030B0B6C6725AFB.png"  transform="matrix(1 0 0 1 379 740)">
			</image>
		</g>
		<g id="Fantom_xA0_Image_00000008865597995599230400000015933311106485328797_" style="display:inline;">
			
				<image style="overflow:visible;" width="267" height="51" id="Fantom_xA0_Image" xlink:href="B030B0B6C6725AE5.png"  transform="matrix(1 0 0 1 379 740)">
			</image>
		</g>
	</g>
</g>
</svg>
